<?xml version="1.0" encoding="UTF-8" standalone="no"?>
<!-- Created with Inkscape (http://www.inkscape.org/) -->

<svg
   xmlns:dc="http://purl.org/dc/elements/1.1/"
   xmlns:cc="http://creativecommons.org/ns#"
   xmlns:rdf="http://www.w3.org/1999/02/22-rdf-syntax-ns#"
   xmlns:svg="http://www.w3.org/2000/svg"
   xmlns="http://www.w3.org/2000/svg"
   xmlns:sodipodi="http://sodipodi.sourceforge.net/DTD/sodipodi-0.dtd"
   xmlns:inkscape="http://www.inkscape.org/namespaces/inkscape"
   width="210mm"
   height="297mm"
   viewBox="0 0 210 297"
   version="1.1"
   id="svg8"
   inkscape:version="0.92.5 (2060ec1f9f, 2020-04-08)"
   sodipodi:docname="hologram.svg">
  <defs
     id="defs2" />
  <sodipodi:namedview
     id="base"
     pagecolor="#ffffff"
     bordercolor="#666666"
     borderopacity="1.0"
     inkscape:pageopacity="0.0"
     inkscape:pageshadow="2"
     inkscape:zoom="1.979899"
     inkscape:cx="484.23788"
     inkscape:cy="689.57431"
     inkscape:document-units="mm"
     inkscape:current-layer="layer1"
     showgrid="false"
     inkscape:window-width="1920"
     inkscape:window-height="1017"
     inkscape:window-x="-8"
     inkscape:window-y="-8"
     inkscape:window-maximized="1" />
  <metadata
     id="metadata5">
    <rdf:RDF>
      <cc:Work
         rdf:about="">
        <dc:format>image/svg+xml</dc:format>
        <dc:type
           rdf:resource="http://purl.org/dc/dcmitype/StillImage" />
        <dc:title />
      </cc:Work>
    </rdf:RDF>
  </metadata>
  <g
     inkscape:label="圖層 1"
     inkscape:groupmode="layer"
     id="layer1">
    <g
       transform="matrix(0.05433406,0,0,0.05433406,120.41577,114.39548)"
       id="g965">
      <g
         id="g963">
        <path
           inkscape:connector-curvature="0"
           d="m 144.004,424.009 c -22.056,0 -40,17.944 -40,40 0,4.424 3.576,8 8,8 4.424,0 8,-3.576 8,-8 0,-13.232 10.768,-24 24,-24 4.424,0 8,-3.576 8,-8 0,-4.424 -3.576,-8 -8,-8 z"
           id="path961" />
      </g>
    </g>
    <g
       transform="matrix(0.05433406,0,0,0.05433406,120.41577,114.39548)"
       id="g971">
      <g
         id="g969">
        <path
           inkscape:connector-curvature="0"
           d="m 360.004,424.009 c -4.424,0 -8,3.576 -8,8 0,4.424 3.576,8 8,8 13.232,0 24,10.768 24,24 0,4.424 3.576,8 8,8 4.424,0 8,-3.576 8,-8 0,-22.056 -17.944,-40 -40,-40 z"
           id="path967" />
      </g>
    </g>
    <g
       transform="matrix(0.05433406,0,0,0.05433406,120.41577,114.39548)"
       id="g977">
      <g
         id="g975">
        <path
           inkscape:connector-curvature="0"
           d="m 360.004,424.009 h -216 c -4.424,0 -8,3.576 -8,8 0,4.424 3.576,8 8,8 h 216 c 4.424,0 8,-3.576 8,-8 0,-4.424 -3.576,-8 -8,-8 z"
           id="path973" />
      </g>
    </g>
    <g
       transform="matrix(0.05433406,0,0,0.05433406,120.41577,114.39548)"
       id="g983">
      <g
         id="g981">
        <path
           inkscape:connector-curvature="0"
           d="m 392.004,456.009 h -280 c -4.424,0 -8,3.576 -8,8 0,4.424 3.576,8 8,8 h 280 c 4.424,0 8,-3.576 8,-8 0,-4.424 -3.576,-8 -8,-8 z"
           id="path979" />
      </g>
    </g>
    <g
       transform="matrix(0.05433406,0,0,0.04478872,120.41577,118.74824)"
       id="g989"
       style="stroke-width:1.10141695">
      <g
         id="g987"
         style="stroke-width:1.10141695">
        <path
           inkscape:connector-curvature="0"
           d="m 408.004,456.009 h -312 c -4.424,0 -8,3.576 -8,8 v 40 c 0,4.424 3.576,8 8,8 h 312 c 4.424,0 8,-3.576 8,-8 v -40 c 0,-4.424 -3.576,-8 -8,-8 z m -8,40 h -296 v -24 h 296 z"
           id="path985"
           style="stroke-width:1.10141695" />
      </g>
    </g>
    <g
       transform="matrix(0.05433406,0,0,0.05433406,120.41577,114.39548)"
       id="g995">
      <g
         id="g993">
        <path
           inkscape:connector-curvature="0"
           d="m 296.004,384.009 c -4.424,0 -8,3.576 -8,8 v 40 c 0,4.424 3.576,8 8,8 4.424,0 8,-3.576 8,-8 v -40 c 0,-4.424 -3.576,-8 -8,-8 z"
           id="path991" />
      </g>
    </g>
    <g
       transform="matrix(0.05433406,0,0,0.05433406,120.41577,114.39548)"
       id="g1001">
      <g
         id="g999">
        <path
           inkscape:connector-curvature="0"
           d="m 216.004,384.009 c -4.424,0 -8,3.576 -8,8 v 40 c 0,4.424 3.576,8 8,8 4.424,0 8,-3.576 8,-8 v -40 c 0,-4.424 -3.576,-8 -8,-8 z"
           id="path997" />
      </g>
    </g>
    <g
       transform="matrix(0.05433406,0,0,0.05433406,120.41577,114.39548)"
       id="g1007">
      <g
         id="g1005">
        <path
           inkscape:connector-curvature="0"
           d="m 336.004,408.009 c -4.424,0 -8,3.576 -8,8 v 16 c 0,4.424 3.576,8 8,8 4.424,0 8,-3.576 8,-8 v -16 c 0,-4.424 -3.576,-8 -8,-8 z"
           id="path1003" />
      </g>
    </g>
    <g
       transform="matrix(0.05433406,0,0,0.05433406,120.41577,114.39548)"
       id="g1013">
      <g
         id="g1011">
        <path
           inkscape:connector-curvature="0"
           d="m 176.004,408.009 c -4.424,0 -8,3.576 -8,8 v 16 c 0,4.424 3.576,8 8,8 4.424,0 8,-3.576 8,-8 v -16 c 0,-4.424 -3.576,-8 -8,-8 z"
           id="path1009" />
      </g>
    </g>
    <g
       transform="matrix(0.05433406,0,0,0.05433406,120.41577,114.39548)"
       id="g1019">
      <g
         id="g1017">
        <path
           inkscape:connector-curvature="0"
           d="m 256.004,360.009 c -4.424,0 -8,3.576 -8,8 v 64 c 0,4.424 3.576,8 8,8 4.424,0 8,-3.576 8,-8 v -64 c 0,-4.424 -3.576,-8 -8,-8 z"
           id="path1015" />
      </g>
    </g>
    <g
       id="g1021"
       transform="matrix(0.05433406,0,0,0.05433406,80.859881,112.65823)" />
    <g
       id="g1023"
       transform="matrix(0.05433406,0,0,0.05433406,80.859881,112.65823)" />
    <g
       id="g1025"
       transform="matrix(0.05433406,0,0,0.05433406,80.859881,112.65823)" />
    <g
       id="g1027"
       transform="matrix(0.05433406,0,0,0.05433406,80.859881,112.65823)" />
    <g
       id="g1029"
       transform="matrix(0.05433406,0,0,0.05433406,80.859881,112.65823)" />
    <g
       id="g1031"
       transform="matrix(0.05433406,0,0,0.05433406,80.859881,112.65823)" />
    <g
       id="g1033"
       transform="matrix(0.05433406,0,0,0.05433406,80.859881,112.65823)" />
    <g
       id="g1035"
       transform="matrix(0.05433406,0,0,0.05433406,80.859881,112.65823)" />
    <g
       id="g1037"
       transform="matrix(0.05433406,0,0,0.05433406,80.859881,112.65823)" />
    <g
       id="g1039"
       transform="matrix(0.05433406,0,0,0.05433406,80.859881,112.65823)" />
    <g
       id="g1041"
       transform="matrix(0.05433406,0,0,0.05433406,80.859881,112.65823)" />
    <g
       id="g1043"
       transform="matrix(0.05433406,0,0,0.05433406,80.859881,112.65823)" />
    <g
       id="g1045"
       transform="matrix(0.05433406,0,0,0.05433406,80.859881,112.65823)" />
    <g
       id="g1047"
       transform="matrix(0.05433406,0,0,0.05433406,80.859881,112.65823)" />
    <g
       id="g1049"
       transform="matrix(0.05433406,0,0,0.05433406,80.859881,112.65823)" />
    <path
       style="fill:none;stroke:#000000;stroke-width:0.99999994;stroke-linecap:butt;stroke-linejoin:miter;stroke-miterlimit:4;stroke-dasharray:none;stroke-opacity:1"
       d="m 126.11778,140.01698 -6.83299,-14.84663"
       id="path1280"
       inkscape:connector-curvature="0" />
    <path
       style="fill:none;stroke:#000000;stroke-width:1;stroke-linecap:butt;stroke-linejoin:miter;stroke-miterlimit:4;stroke-dasharray:none;stroke-opacity:1"
       d="m 142.12554,140.02629 7.98173,-15.1325"
       id="path1280-8"
       inkscape:connector-curvature="0" />
    <ellipse
       style="fill:none;stroke:#000000;stroke-width:1.00000003;stroke-miterlimit:4;stroke-dasharray:2.00000006,1.00000003;stroke-opacity:1;stroke-dashoffset:0"
       id="path910"
       ry="4.2763124"
       rx="4.1426773"
       cy="118.86486"
       cx="134.70383" />
    <path
       style="fill:none;stroke:#000000;stroke-width:1.00000003;stroke-linecap:butt;stroke-linejoin:miter;stroke-miterlimit:4;stroke-dasharray:2.00000006,1.00000003;stroke-opacity:1;stroke-dashoffset:0"
       d="m 128.0221,128.62021 c 6.68174,-10.69079 13.22984,-0.26727 13.22984,-0.26727"
       id="path912"
       inkscape:connector-curvature="0"
       sodipodi:nodetypes="cc" />
  </g>
</svg>
