<?xml version="1.0" encoding="UTF-8" standalone="no"?>
<!-- Created with Inkscape (http://www.inkscape.org/) -->

<svg
   xmlns:dc="http://purl.org/dc/elements/1.1/"
   xmlns:cc="http://creativecommons.org/ns#"
   xmlns:rdf="http://www.w3.org/1999/02/22-rdf-syntax-ns#"
   xmlns:svg="http://www.w3.org/2000/svg"
   xmlns="http://www.w3.org/2000/svg"
   xmlns:sodipodi="http://sodipodi.sourceforge.net/DTD/sodipodi-0.dtd"
   xmlns:inkscape="http://www.inkscape.org/namespaces/inkscape"
   width="210mm"
   height="297mm"
   viewBox="0 0 210 297"
   version="1.1"
   id="svg8"
   inkscape:version="0.92.5 (2060ec1f9f, 2020-04-08)"
   sodipodi:docname="real_scene.svg">
  <defs
     id="defs2">
	
</defs>
  <sodipodi:namedview
     id="base"
     pagecolor="#ffffff"
     bordercolor="#666666"
     borderopacity="1.0"
     inkscape:pageopacity="0.0"
     inkscape:pageshadow="2"
     inkscape:zoom="0.35"
     inkscape:cx="-165.54401"
     inkscape:cy="366.56215"
     inkscape:document-units="mm"
     inkscape:current-layer="g817"
     showgrid="false"
     inkscape:window-width="1920"
     inkscape:window-height="1017"
     inkscape:window-x="-8"
     inkscape:window-y="-8"
     inkscape:window-maximized="1" />
  <metadata
     id="metadata5">
    <rdf:RDF>
      <cc:Work
         rdf:about="">
        <dc:format>image/svg+xml</dc:format>
        <dc:type
           rdf:resource="http://purl.org/dc/dcmitype/StillImage" />
        <dc:title></dc:title>
      </cc:Work>
    </rdf:RDF>
  </metadata>
  <g
     inkscape:label="圖層 1"
     inkscape:groupmode="layer"
     id="layer1">
    <g
       id="g817"
       transform="matrix(0.1110305,0,0,0.1110305,89.605692,124.84567)"
       style="stroke-width:2.38297868">
      <g
         id="g840"
         transform="matrix(0.98198454,0,0,0.58500886,-311.23789,353.40707)"
         style="stroke-width:3.14402938">
        <path
           style="stroke-width:3.14402938"
           inkscape:connector-curvature="0"
           d="M 495.93617,20.425533 H 73.936172 c -24.813,0 -45,20.187 -45,45 V 387.42553 c 0,24.813 20.187,45 45,45 H 216.63917 l -6.765,33.826 c -4.192,20.961 -22.75,36.174 -44.126,36.174 h -40.812 c -8.284,0 -15,6.716 -15,15 0,8.284 6.716,15 15,15 h 320 c 8.284,0 15,-6.716 15,-15 0,-8.284 -6.716,-15 -15,-15 h -40.812 c -21.376,0 -39.934,-15.213 -44.126,-36.175 l -6.765,-33.825 h 142.703 c 24.813,0 45,-20.187 45,-45 V 65.425533 c 0,-24.813 -20.187,-45 -45,-45 z m -226,248.419997 c -17.459,-6.192 -30,-22.865 -30,-42.42 0,-19.555 12.541,-36.228 30,-42.42 z m 30,-84.84 c 17.459,6.192 30,22.865 30,42.42 0,19.555 -12.541,36.228 -30,42.42 z m -181,0 c 17.459,6.192 30,22.865 30,42.42 0,19.555 -12.541,36.228 -30,42.42 z m -29.999998,122.42 c 0,2.757 -2.243,5 -5,5 h -25 v -170 h 25 c 2.757,0 5,2.243 5,5 z m -30,81 v -46 h 25 c 19.298998,0 34.999998,-15.701 34.999998,-35 v -6.509 c 34.192,-6.968 60,-37.272 60,-73.491 0,-36.219 -25.808,-66.522 -60,-73.491 v -6.509 c 0,-19.299 -15.701,-35 -34.999998,-35 h -25 V 65.425533 c 0,-8.271 6.729,-15 15,-15 H 269.93617 V 152.93453 c -34.192,6.968 -60,37.272 -60,73.491 0,36.219 25.808,66.522 60,73.491 v 102.509 H 73.936172 c -8.271,0 -15,-6.729 -15,-15 z m 271.644998,84.708 c 2.254,11.271 7,21.544 13.592,30.292 h -118.474 c 6.592,-8.747 11.338,-19.02 13.592,-30.291 l 7.942,-39.709 h 75.406 z m 165.355,-69.708 h -196 v -102.509 c 34.192,-6.968 60,-37.272 60,-73.491 0,-36.219 -25.808,-66.522 -60,-73.491 V 50.425533 h 196 c 8.271,0 15,6.729 15,15 v 45.999997 h -25 c -19.299,0 -35,15.701 -35,35 v 6.509 c -34.192,6.968 -60,37.272 -60,73.491 0,36.219 25.808,66.522 60,73.491 v 6.509 c 0,19.299 15.701,35 35,35 h 25 v 46 c 0,8.271 -6.729,15 -15,15 z m 15,-91 h -25 c -2.757,0 -5,-2.243 -5,-5 v -160 c 0,-2.757 2.243,-5 5,-5 h 25 z m -60,-42.58 c -17.459,-6.192 -30,-22.865 -30,-42.42 0,-19.555 12.541,-36.228 30,-42.42 z"
           id="path815" />
        <rect
           y="430.51392"
           x="20.197363"
           height="129.36171"
           width="534.46814"
           id="rect832"
           style="fill:#ffffff;fill-opacity:1;stroke:none;stroke-width:11.88294697;stroke-miterlimit:4;stroke-dasharray:23.76589504, 11.88294751;stroke-dashoffset:0;stroke-opacity:1" />
      </g>
      <g
         id="g1285"
         transform="matrix(2.3829789,0,0,2.3829789,-186.51066,-16.351862)">
</g>
      <g
         id="g1287"
         transform="matrix(2.3829789,0,0,2.3829789,-186.51066,-16.351862)">
</g>
      <g
         id="g1289"
         transform="matrix(2.3829789,0,0,2.3829789,-186.51066,-16.351862)">
</g>
      <g
         id="g1291"
         transform="matrix(2.3829789,0,0,2.3829789,-186.51066,-16.351862)">
</g>
      <g
         id="g1293"
         transform="matrix(2.3829789,0,0,2.3829789,-186.51066,-16.351862)">
</g>
      <g
         id="g1295"
         transform="matrix(2.3829789,0,0,2.3829789,-186.51066,-16.351862)">
</g>
      <g
         id="g1297"
         transform="matrix(2.3829789,0,0,2.3829789,-186.51066,-16.351862)">
</g>
      <g
         id="g1299"
         transform="matrix(2.3829789,0,0,2.3829789,-186.51066,-16.351862)">
</g>
      <g
         id="g1301"
         transform="matrix(2.3829789,0,0,2.3829789,-186.51066,-16.351862)">
</g>
      <g
         id="g1303"
         transform="matrix(2.3829789,0,0,2.3829789,-186.51066,-16.351862)">
</g>
      <g
         id="g1305"
         transform="matrix(2.3829789,0,0,2.3829789,-186.51066,-16.351862)">
</g>
      <g
         id="g1307"
         transform="matrix(2.3829789,0,0,2.3829789,-186.51066,-16.351862)">
</g>
      <g
         id="g1309"
         transform="matrix(2.3829789,0,0,2.3829789,-186.51066,-16.351862)">
</g>
      <g
         id="g1311"
         transform="matrix(2.3829789,0,0,2.3829789,-186.51066,-16.351862)">
</g>
      <g
         id="g1313"
         transform="matrix(2.3829789,0,0,2.3829789,-186.51066,-16.351862)">
</g>
      <path
         style="fill:none;fill-opacity:1;stroke:#000000;stroke-width:9.00653458;stroke-miterlimit:4;stroke-dasharray:18.01306981, 9.00653488;stroke-dashoffset:0;stroke-opacity:1"
         id="path1422"
         sodipodi:type="arc"
         sodipodi:cx="-33.130833"
         sodipodi:cy="503.39423"
         sodipodi:rx="494.67386"
         sodipodi:ry="173.31633"
         sodipodi:start="0"
         sodipodi:end="6.2653131"
         sodipodi:open="true"
         d="M 461.54303,503.39423 A 494.67386,173.31633 0 0 1 -30.920612,676.70883 494.67386,173.31633 0 0 1 -527.78494,504.94298 494.67386,173.31633 0 0 1 -39.761319,330.09347 494.67386,173.31633 0 0 1 461.46402,500.29685" />
      <path
         style="fill:none;fill-opacity:1;stroke:#000000;stroke-width:9.00653458;stroke-miterlimit:4;stroke-dasharray:18.01306936, 9.00653467;stroke-dashoffset:0;stroke-opacity:1"
         id="path1426"
         sodipodi:type="arc"
         sodipodi:cx="-31.927235"
         sodipodi:cy="563.5733"
         sodipodi:rx="500.6918"
         sodipodi:ry="447.73401"
         sodipodi:start="0"
         sodipodi:end="6.2653131"
         sodipodi:open="true"
         d="M 468.76457,563.5733 A 500.6918,447.73401 0 0 1 -29.690125,1011.3028 500.6918,447.73401 0 0 1 -532.59905,567.57425 500.6918,447.73401 0 0 1 -38.638384,115.87952 500.6918,447.73401 0 0 1 468.68461,555.57173" />
      <rect
         style="fill:#ffffff;fill-opacity:1;stroke:none;stroke-width:9.00653458;stroke-miterlimit:4;stroke-dasharray:18.01306913, 9.00653456;stroke-dashoffset:0;stroke-opacity:1"
         id="rect1428"
         width="1190.9469"
         height="337.35059"
         x="-655.21381"
         y="695.12518" />
      <rect
         style="fill:#ffffff;fill-opacity:1;stroke:#ffffff;stroke-width:9.00653458;stroke-miterlimit:4;stroke-dasharray:none;stroke-dashoffset:0;stroke-opacity:1"
         id="rect1444"
         width="45.13451"
         height="125.23427"
         x="-553.68182"
         y="569.52997" />
      <rect
         style="fill:#ffffff;fill-opacity:1;stroke:#ffffff;stroke-width:9.00653458;stroke-miterlimit:4;stroke-dasharray:none;stroke-dashoffset:0;stroke-opacity:1"
         id="rect1446"
         width="26.478895"
         height="33.098618"
         x="-553.68182"
         y="536.43134" />
      <rect
         style="fill:#ffffff;fill-opacity:1;stroke:#ffffff;stroke-width:9.00653458;stroke-miterlimit:4;stroke-dasharray:none;stroke-dashoffset:0;stroke-opacity:1"
         id="rect1444-7"
         width="45.13451"
         height="125.23426"
         x="442.20572"
         y="588.67035" />
      <rect
         style="fill:#ffffff;fill-opacity:1;stroke:#ffffff;stroke-width:9.00653458;stroke-miterlimit:4;stroke-dasharray:none;stroke-dashoffset:0;stroke-opacity:1"
         id="rect1446-1"
         width="26.478893"
         height="55.226276"
         x="464.26562"
         y="530.89087" />
    </g>
  </g>
</svg>
