<?xml version="1.0" encoding="UTF-8" standalone="no"?>
<!-- Created with Inkscape (http://www.inkscape.org/) -->

<svg
   xmlns:dc="http://purl.org/dc/elements/1.1/"
   xmlns:cc="http://creativecommons.org/ns#"
   xmlns:rdf="http://www.w3.org/1999/02/22-rdf-syntax-ns#"
   xmlns:svg="http://www.w3.org/2000/svg"
   xmlns="http://www.w3.org/2000/svg"
   xmlns:sodipodi="http://sodipodi.sourceforge.net/DTD/sodipodi-0.dtd"
   xmlns:inkscape="http://www.inkscape.org/namespaces/inkscape"
   width="210mm"
   height="297mm"
   viewBox="0 0 210 297"
   version="1.1"
   id="svg8"
   inkscape:version="0.92.5 (2060ec1f9f, 2020-04-08)"
   sodipodi:docname="training.svg">
  <defs
     id="defs2" />
  <sodipodi:namedview
     id="base"
     pagecolor="#ffffff"
     bordercolor="#666666"
     borderopacity="1.0"
     inkscape:pageopacity="0.0"
     inkscape:pageshadow="2"
     inkscape:zoom="0.7"
     inkscape:cx="-21.364016"
     inkscape:cy="509.67767"
     inkscape:document-units="mm"
     inkscape:current-layer="g942"
     showgrid="false"
     inkscape:window-width="1920"
     inkscape:window-height="1017"
     inkscape:window-x="-8"
     inkscape:window-y="-8"
     inkscape:window-maximized="1" />
  <metadata
     id="metadata5">
    <rdf:RDF>
      <cc:Work
         rdf:about="">
        <dc:format>image/svg+xml</dc:format>
        <dc:type
           rdf:resource="http://purl.org/dc/dcmitype/StillImage" />
        <dc:title></dc:title>
      </cc:Work>
    </rdf:RDF>
  </metadata>
  <g
     inkscape:label="圖層 1"
     inkscape:groupmode="layer"
     id="layer1">
    <g
       id="g942"
       transform="matrix(0.28013392,0,0,0.28013392,0.15528413,105.62715)"
       style="stroke-width:3.56972122">
      <g
         transform="matrix(0.26458333,0,0,0.26458333,266.26028,210.16745)"
         id="g836"
         style="stroke-width:3.56972122">
        <path
           inkscape:connector-curvature="0"
           d="M 498.039,212.798 C 490.532,194.655 476.776,167.19 453.874,139.373 418.874,96.864 356.134,46.191 256,46.191 c -52.891,0 -100.662,14.139 -141.986,42.024 -3.44,2.321 -4.347,6.992 -2.025,10.432 2.321,3.44 6.992,4.347 10.433,2.025 C 161.217,74.494 206.159,61.22 256,61.22 c 94.271,0 153.329,47.695 186.271,87.706 37.315,45.322 54.7,97.73 54.7,118.879 0,19.569 -9.206,37.359 -27.362,52.877 -6.497,5.553 -13.057,9.826 -18.259,12.828 v -4.412 c 0,-12.083 -6.474,-23.419 -16.895,-29.582 -11.532,-6.818 -30.329,-16.905 -54.396,-26.24 -3.871,-1.502 -8.223,0.419 -9.724,4.289 -1.5,3.869 0.42,8.223 4.289,9.723 23.114,8.966 41.134,18.633 52.18,25.164 5.869,3.472 9.516,9.85 9.516,16.646 v 32.918 c -9.974,-5.297 -26.023,-13.212 -46.403,-21.177 -32.114,-12.551 -81.416,-27.512 -133.921,-27.512 -52.505,0 -101.805,14.961 -133.917,27.512 -20.379,7.965 -36.426,15.879 -46.4,21.176 v -32.917 c 0,-6.796 3.646,-13.174 9.515,-16.645 C 109.78,297.915 175.639,264.1 256,264.1 c 29.719,0 60.249,4.592 90.743,13.649 3.98,1.185 8.161,-1.086 9.343,-5.064 1.182,-3.978 -1.086,-8.162 -5.064,-9.343 -31.883,-9.47 -63.853,-14.271 -95.021,-14.271 -84.072,0 -152.806,35.278 -178.456,50.446 -10.421,6.163 -16.894,17.498 -16.894,29.581 v 4.38 C 44.459,324.076 15.03,302.25 15.03,267.806 c 0,-25.66 25.435,-98.113 84.233,-149.321 3.13,-2.726 3.457,-7.473 0.731,-10.603 -2.726,-3.131 -7.473,-3.458 -10.602,-0.732 C 26.221,162.166 0,238.932 0,267.805 c 0,23.962 11.404,46.3 32.978,64.602 10.883,9.231 21.714,15.218 27.672,18.162 v 24.264 c 0,2.365 1.116,58.192 98.122,81.212 0.584,0.139 1.167,0.206 1.742,0.206 3.402,0 6.485,-2.327 7.305,-5.782 0.958,-4.038 -1.539,-8.088 -5.576,-9.046 -24.658,-5.852 -57.817,-17.774 -75.757,-41.34 -6.789,-8.919 -9.312,-16.734 -10.251,-21.227 18.449,-10.324 95.666,-50.5 179.761,-50.5 84.102,0 161.331,40.183 179.771,50.502 -1.335,6.472 -5.908,19.676 -21.581,33.117 C 376.787,444.048 307.521,450.78 256,450.78 c -23.619,0 -45.452,-1.357 -64.891,-4.034 -4.107,-0.57 -7.904,2.308 -8.469,6.419 -0.566,4.112 2.308,7.904 6.419,8.47 20.116,2.77 42.639,4.175 66.941,4.175 79.794,0 136.771,-14.678 169.347,-43.628 25.707,-22.844 26.002,-46.357 26.002,-47.347 v -24.264 c 5.957,-2.944 16.789,-8.931 27.672,-18.162 C 500.596,314.106 512,291.767 512,267.805 c 0,-13.318 -5.219,-33.88 -13.961,-55.007 z"
           id="path832"
           style="stroke-width:3.56972122" />
        <path
           inkscape:connector-curvature="0"
           d="m 310.96,165.189 c 3.439,-4.098 4.505,-9.581 2.853,-14.668 -1.653,-5.088 -5.739,-8.897 -10.93,-10.191 l -21.726,-5.414 c -0.094,-0.023 -0.175,-0.082 -0.228,-0.166 l -11.86,-18.987 c -2.834,-4.537 -7.72,-7.246 -13.069,-7.246 -5.349,0 -10.235,2.708 -13.069,7.246 l -11.861,18.988 c -0.052,0.083 -0.133,0.142 -0.23,0.166 l -21.723,5.413 c -5.191,1.294 -9.276,5.103 -10.93,10.191 -1.653,5.087 -0.586,10.571 2.853,14.668 l 14.392,17.145 c 0.064,0.077 0.096,0.173 0.089,0.273 l -1.565,22.333 c -0.374,5.336 1.986,10.399 6.314,13.543 4.328,3.145 9.873,3.825 14.833,1.82 l 20.752,-8.388 c 0.094,-0.039 0.197,-0.037 0.287,-0.002 l 20.756,8.39 c 4.926,1.997 10.491,1.337 14.832,-1.82 4.327,-3.144 6.688,-8.207 6.314,-13.543 l -1.565,-22.334 c -0.007,-0.099 0.025,-0.195 0.088,-0.27 z m -25.906,7.485 c -2.582,3.076 -3.849,6.978 -3.568,10.983 l 1.565,22.333 c 0.095,0.208 -0.351,0.534 -0.521,0.379 l -20.759,-8.392 c -3.723,-1.502 -7.822,-1.502 -11.546,0.002 l -20.755,8.39 c -0.172,0.154 -0.616,-0.17 -0.522,-0.379 l 1.565,-22.332 c 0.281,-4.007 -0.986,-7.908 -3.568,-10.986 l -14.393,-17.147 c -0.201,-0.113 -0.029,-0.638 0.199,-0.613 l 21.72,-5.412 c 3.898,-0.97 7.218,-3.381 9.346,-6.789 l 11.861,-18.987 c 0.047,-0.226 0.598,-0.226 0.645,0 l 11.86,18.986 c 2.129,3.409 5.448,5.82 9.343,6.789 l 21.723,5.413 c 0.228,-0.026 0.4,0.499 0.199,0.613 z"
           id="path834"
           style="stroke-width:3.56972122" />
      </g>
      <path
         inkscape:connector-curvature="0"
         id="path904"
         d="m 357.33937,281.2311 12.56165,4.2763"
         style="fill:none;stroke:#000000;stroke-width:3.56972123;stroke-linecap:butt;stroke-linejoin:miter;stroke-miterlimit:4;stroke-dasharray:none;stroke-opacity:1" />
      <path
         inkscape:connector-curvature="0"
         id="path904-7"
         d="m 305.00467,328.15175 14.86679,2.64302"
         style="fill:none;stroke:#000000;stroke-width:3.56972123;stroke-linecap:butt;stroke-linejoin:miter;stroke-miterlimit:4;stroke-dasharray:none;stroke-opacity:1" />
      <path
         inkscape:transform-center-y="-2.1381562"
         inkscape:transform-center-x="4.543582"
         inkscape:connector-curvature="0"
         id="path904-7-8"
         d="m 287.083,243.78214 11.68879,-9.55924"
         style="fill:none;stroke:#000000;stroke-width:3.56972123;stroke-linecap:butt;stroke-linejoin:miter;stroke-miterlimit:4;stroke-dasharray:none;stroke-opacity:1" />
    </g>
    <g
       id="g957"
       transform="translate(-19.276786,7.7485119)">
      <g
         style="stroke-width:3.29465008"
         transform="matrix(0.08030696,0,0,0.08030696,-4.4150855,117.29036)"
         id="XMLID_1599_">
        <g
           style="stroke-width:3.29465008"
           id="g900">
          <path
             style="stroke-width:3.29465008"
             inkscape:connector-curvature="0"
             id="XMLID_822_"
             d="m 1204.8061,410.28505 c -8.663,-10.92 -21.06,-17.812 -34.908,-19.408 -13.844,-1.596 -27.486,2.298 -38.406,10.961 -0.769,0.61 -1.56,1.19 -2.344,1.779 v -31.387 c 0,-39.264 -13.766,-77.518 -38.762,-107.714 -22.981,-27.764 -54.377,-47.538 -89.06,-56.252 -0.908,-4.325 -2.88996,-8.404 -5.83296,-11.848 -5.075,-5.932 -12.461,-9.334 -20.267,-9.334 h -30.229 c -7.806,0 -15.193,3.402 -20.266,9.335 -2.944,3.442 -4.925,7.522 -5.833,11.848 -34.683,8.714 -66.079,28.488 -89.061,56.252 -24.996,30.196 -38.761,68.45 -38.761,107.714 v 31.387 c -0.784,-0.59 -1.574,-1.169 -2.343,-1.779 -22.543,-17.886 -55.43,-14.095 -73.316,8.447 -17.884,22.541 -14.095,55.43 8.447,73.315 13.936,11.056 29.148,20.313 45.212,27.648 v 81.761 c 0,38.963 15.173,75.594 42.724,103.145 1.876,1.875 4.419,2.929 7.071,2.929 2.652,0 5.196,-1.054 7.071,-2.929 l 31.112,-31.113 c 3.905,-3.905 3.905,-10.237 0,-14.143 -15.463,-15.463 -23.979,-36.021 -23.979,-57.889 v -63.52 c 9.083,1.153 18.253,1.741 27.454,1.741 h 54.644 c 5.523,0 10,-4.478 10,-10 0,-5.522 -4.477,-10 -10,-10 h -54.644 c -44.923,0 -89.044,-15.377 -124.237,-43.299 -13.902,-11.03 -16.239,-31.314 -5.208,-45.217 11.029,-13.903 31.313,-16.24 45.217,-5.209 23.858,18.93 53.771,29.354 84.228,29.354 h 199.16196 c 30.457,0 60.37,-10.425 84.23,-29.354 6.733,-5.344 15.143,-7.742 23.687,-6.761 8.541,0.984 16.188,5.235 21.53,11.97 5.343,6.735 7.743,15.148 6.76,23.688 -0.984,8.541 -5.235,16.186 -11.97,21.529 -35.193,27.922 -79.315,43.299 -124.237,43.299 h -54.518 c -5.52196,0 -9.99996,4.478 -9.99996,10 0,5.522 4.478,10 9.99996,10 h 54.518 c 9.202,0 18.373,-0.588 27.456,-1.741 v 63.52 c 0,215.72757 -1.8082,47.47862 -23.978,57.889 -3.905,3.905 -3.905,10.237 0,14.143 l 31.112,31.113 c 1.875,1.875 4.419,2.929 7.071,2.929 2.652,0 5.195,-1.054 7.071,-2.929 20.6208,-20.62074 34.3075,-46.328 39.8884,-74.29248 1.8756,-9.39835 2.8356,-19.05166 2.8356,-28.85252 v -81.761 c 16.064,-7.335 31.276,-16.592 45.211,-27.648 10.92,-8.663 17.812,-21.061 19.408,-34.908 1.597,-13.849 -2.297,-27.489 -10.96,-38.408 z m -368.62396,247.343 -17.036,17.037 c -19.46,-22.757 -30.07,-51.391 -30.07,-81.656 v -73.775 c 7.862,2.703 15.877,4.96 24,6.763 v 67.012 c 0,23.847 8.14,46.446 23.106,64.619 z m 65.93,-313.951 v -23.768 l 58,-30.234 57.99996,30.234 v 23.768 c 0,37.217 -23.17696,69.899 -57.99996,82.307 -34.824,-12.408 -58,-45.091 -58,-82.307 z m 96.616,83.183 c 24.45796,-19.929 39.38396,-50.09 39.38396,-83.184 v -29.833 c 0,-3.727 -2.072,-7.145 -5.378,-8.867 l -67.99996,-35.447 c -2.896,-1.51 -6.348,-1.51 -9.245,0 l -68,35.447 c -3.305,1.723 -5.377,5.141 -5.377,8.867 v 29.833 c 0,33.093 14.927,63.254 39.384,83.184 h -60.966 c -17.141,0 -34.069,-3.896 -49.454,-11.172 v -43.458 c 0,-67.194 45.36,-126.013 109.257,-143.661 l 2.523,16.057 c 0.775,4.931 5.028,8.449 9.867,8.449 0.516,0 1.039,-0.04 1.564,-0.122 5.456,-0.857 9.184,-5.975 8.327,-11.431 l -4.201,-26.74 c -0.415,-2.64 0.773,-4.496 1.519,-5.367 0.745,-0.871 2.394,-2.333 5.066,-2.333 h 30.228 c 2.672,0 4.321,1.462 5.066,2.334 0.745,0.871 1.934,2.728 1.518,5.367 l -4.201,26.74 c -0.857,5.456 2.871,10.573 8.327,11.431 0.525,0.083 1.048,0.122 1.564,0.122 4.838,0 9.092,-3.519 9.866,-8.449 l 2.523,-16.057 c 63.89696,17.647 109.25696,76.466 109.25696,143.661 v 43.457 c -15.386,7.276 -32.315,11.173 -49.456,11.173 h -60.96196 z m 132.41996,166.149 c 0,30.266 -10.609,58.899 -30.069,81.656 l -17.036,-17.037 c 14.965,-18.174 23.105,-40.771 23.105,-64.619 v -67.012 c 8.123,-1.804 16.138,-4.061 24,-6.764 z"
             sodipodi:nodetypes="ccccscccsscccscccccscscccscssssscccsscccccssssscscccscssccccccsccscscccscscssccccsscscsccsccccssccccsccscsccsccsccs" />
          <path
             style="stroke-width:3.29465008"
             inkscape:connector-curvature="0"
             id="XMLID_828_"
             d="m 998.11214,338.10205 c 0,-3.727 -2.072,-7.145 -5.377,-8.867 l -28,-14.597 c -2.898,-1.51 -6.349,-1.51 -9.246,0 l -28,14.597 c -3.305,1.723 -5.377,5.141 -5.377,8.867 v 5.575 c 0,23.696 12.606,45.892 32.899,57.925 1.572,0.933 3.336,1.398 5.101,1.398 1.764,0 3.528,-0.466 5.101,-1.398 20.293,-12.033 32.899,-34.229 32.899,-57.925 z m -38,42.814 c -11.246,-8.793 -17.854,-22.117 -17.998,-36.752 l 17.998,-9.382 17.998,9.382 c -0.145,14.635 -6.752,27.959 -17.998,36.752 z" />
          <rect
             style="fill:#ffffff;fill-opacity:1;stroke:none;stroke-width:12.45222092;stroke-miterlimit:4;stroke-dasharray:24.90444172, 12.4522209;stroke-dashoffset:0;stroke-opacity:1"
             id="rect851"
             width="134.8257"
             height="184.0114"
             x="1055.3002"
             y="533.3573" />
          <rect
             style="fill:#ffffff;fill-opacity:1;stroke:none;stroke-width:12.45222092;stroke-miterlimit:4;stroke-dasharray:24.90444248, 12.45222122;stroke-dashoffset:0;stroke-opacity:1"
             id="rect853"
             width="30.581701"
             height="26.959013"
             x="891.37799"
             y="858.1991"
             transform="rotate(-19.001664)" />
          <rect
             style="fill:#ffffff;fill-opacity:1;stroke:none;stroke-width:12.45222092;stroke-miterlimit:4;stroke-dasharray:24.90444248, 12.45222122;stroke-dashoffset:0;stroke-opacity:1"
             id="rect853-7"
             width="30.581701"
             height="26.959013"
             x="953.5918"
             y="730.65204"
             transform="rotate(-11.178241)" />
          <rect
             style="fill:#ffffff;fill-opacity:1;stroke:none;stroke-width:12.45222092;stroke-miterlimit:4;stroke-dasharray:24.90444172, 12.4522209;stroke-dashoffset:0;stroke-opacity:1"
             id="rect851-9"
             width="134.8257"
             height="184.0114"
             x="-864.92407"
             y="533.35736"
             transform="scale(-1,1)" />
          <rect
             style="fill:#ffffff;fill-opacity:1;stroke:none;stroke-width:12.45222092;stroke-miterlimit:4;stroke-dasharray:24.90444248, 12.45222122;stroke-dashoffset:0;stroke-opacity:1"
             id="rect853-2"
             width="30.581701"
             height="26.959013"
             x="-924.21155"
             y="232.98254"
             transform="matrix(-0.94550912,-0.32559561,-0.32559561,0.94550912,0,0)" />
          <rect
             style="fill:#ffffff;fill-opacity:1;stroke:none;stroke-width:12.45222092;stroke-miterlimit:4;stroke-dasharray:24.90444248, 12.45222122;stroke-dashoffset:0;stroke-opacity:1"
             id="rect853-7-5"
             width="30.581701"
             height="26.959013"
             x="-930.20361"
             y="358.39386"
             transform="matrix(-0.98102885,-0.1938618,-0.1938618,0.98102885,0,0)" />
        </g>
      </g>
      <path
         inkscape:connector-curvature="0"
         id="path944"
         d="m 67.872293,159.14173 9.88367,0.0274"
         style="fill:none;stroke:#000000;stroke-width:1.69999993;stroke-linecap:butt;stroke-linejoin:miter;stroke-miterlimit:4;stroke-dasharray:none;stroke-opacity:1" />
    </g>
    <path
       style="fill:none;stroke:#000000;stroke-width:3;stroke-linecap:butt;stroke-linejoin:miter;stroke-opacity:1;stroke-miterlimit:4;stroke-dasharray:none"
       d="M 96.761905,141.84077 46.491072,198.72619"
       id="path961"
       inkscape:connector-curvature="0" />
  </g>
</svg>
